<svg id="visual" viewBox="0 0 900 600" width="900" height="600" xmlns="http://www.w3.org/2000/svg" xmlns:xlink="http://www.w3.org/1999/xlink" version="1.1"><path d="M459 600L502 600L502 533L446 533L446 467L517 467L517 400L474 400L474 333L504 333L504 267L474 267L474 200L532 200L532 133L463 133L463 67L425 67L425 0L900 0L900 67L900 67L900 133L900 133L900 200L900 200L900 267L900 267L900 333L900 333L900 400L900 400L900 467L900 467L900 533L900 533L900 600L900 600Z" fill="#ffffff"></path><path d="M572 600L572 600L572 533L560 533L560 467L514 467L514 400L510 400L510 333L598 333L598 267L499 267L499 200L557 200L557 133L583 133L583 67L523 67L523 0L900 0L900 67L900 67L900 133L900 133L900 200L900 200L900 267L900 267L900 333L900 333L900 400L900 400L900 467L900 467L900 533L900 533L900 600L900 600Z" fill="#dbdbdb"></path><path d="M633 600L620 600L620 533L574 533L574 467L586 467L586 400L618 400L618 333L663 333L663 267L662 267L662 200L607 200L607 133L657 133L657 67L628 67L628 0L900 0L900 67L900 67L900 133L900 133L900 200L900 200L900 267L900 267L900 333L900 333L900 400L900 400L900 467L900 467L900 533L900 533L900 600L900 600Z" fill="#b9b9b9"></path><path d="M648 600L725 600L725 533L655 533L655 467L640 467L640 400L671 400L671 333L663 333L663 267L697 267L697 200L695 200L695 133L690 133L690 67L681 67L681 0L900 0L900 67L900 67L900 133L900 133L900 200L900 200L900 267L900 267L900 333L900 333L900 400L900 400L900 467L900 467L900 533L900 533L900 600L900 600Z" fill="#989898"></path><path d="M777 600L740 600L740 533L787 533L787 467L717 467L717 400L748 400L748 333L724 333L724 267L782 267L782 200L775 200L775 133L762 133L762 67L738 67L738 0L900 0L900 67L900 67L900 133L900 133L900 200L900 200L900 267L900 267L900 333L900 333L900 400L900 400L900 467L900 467L900 533L900 533L900 600L900 600Z" fill="#787878"></path><path d="M804 600L845 600L845 533L855 533L855 467L854 467L854 400L817 400L817 333L836 333L836 267L828 267L828 200L860 200L860 133L809 133L809 67L816 67L816 0L900 0L900 67L900 67L900 133L900 133L900 200L900 200L900 267L900 267L900 333L900 333L900 400L900 400L900 467L900 467L900 533L900 533L900 600L900 600Z" fill="#595959"></path></svg>