<svg id="visual" viewBox="0 0 900 600" width="900" height="600" xmlns="http://www.w3.org/2000/svg" xmlns:xlink="http://www.w3.org/1999/xlink" version="1.1"><rect x="0" y="0" width="900" height="600" fill="#000000"></rect><path d="M0 350L129 350L129 265L257 265L257 337L386 337L386 342L514 342L514 273L643 273L643 252L771 252L771 295L900 295L900 294L900 601L900 601L771 601L771 601L643 601L643 601L514 601L514 601L386 601L386 601L257 601L257 601L129 601L129 601L0 601Z" fill="#0e5169"></path><path d="M0 453L129 453L129 369L257 369L257 393L386 393L386 367L514 367L514 448L643 448L643 464L771 464L771 412L900 412L900 400L900 601L900 601L771 601L771 601L643 601L643 601L514 601L514 601L386 601L386 601L257 601L257 601L129 601L129 601L0 601Z" fill="#188889"></path><path d="M0 537L129 537L129 460L257 460L257 510L386 510L386 442L514 442L514 479L643 479L643 505L771 505L771 525L900 525L900 541L900 601L900 601L771 601L771 601L643 601L643 601L514 601L514 601L386 601L386 601L257 601L257 601L129 601L129 601L0 601Z" fill="#71bd90"></path></svg>